#!OML:ASF H:\Terrain\Patient Classification 1\Walking\steve\steve.ASF
:FULLY-SPECIFIED
:DEGREES
271
root 8.83874 16.5448 13.2426 8.54713 -6.76281 -4.00025
lowerback 0.548955 4.4962 7.00604
upperback -2.27798 6.17849 2.46644
thorax -2.20347 2.96965 -1.47681
lowerneck -8.54899 -1.22299 -1.21778
upperneck 15.9166 -1.3978 -0.473529
head 6.24113 -0.781816 -0.058326
rclavicle -2.64384e-014 -4.77083e-015
rhumerus -25.3809 10.5124 -82.4637
rradius 50.4039
rwrist -8.0961
rhand -17.5765 -40.0278
rfingers 7.12502
rthumb 8.67904 -69.8294
lclavicle -2.64384e-014 -4.77083e-015
lhumerus -53.0576 -0.783855 84.765
lradius 21.8516
lwrist 1.15156
lhand -18.3957 -17.8926
lfingers 7.12502
lthumb 7.88846 11.9403
rfemur -7.35598 -2.2221 27.6859
rtibia 29.5837
rfoot -15.2168 20.8404
rtoes 6.0266
lfemur -38.8414 5.32819 -16.1242
ltibia 30.6172
lfoot -22.4485 7.70104
ltoes -13.7691
272
root 8.85415 16.527 13.4114 8.557 -7.2168 -4.4713
lowerback 0.500355 4.66453 7.37685
upperback -2.27881 6.40499 2.555
thorax -2.13272 3.07779 -1.58252
lowerneck -8.62304 -1.22709 -1.11874
upperneck 16.1217 -1.37452 -0.721984
head 6.3165 -0.784966 -0.153118
rclavicle -1.10723e-013 -6.12257e-014
rhumerus -24.8563 10.8631 -82.2948
rradius 50.2454
rwrist -7.69063
rhand -18.8004 -41.0699
rfingers 7.12502
rthumb 7.49785 -70.917
lclavicle -1.10723e-013 -6.12257e-014
lhumerus -53.8118 -0.533889 84.5362
lradius 21.7331
lwrist 1.10227
lhand -18.8876 -17.71
lfingers 7.12502
lthumb 7.41369 12.1401
rfemur -6.15323 -2.52132 27.882
rtibia 28.5479
rfoot -14.5442 21.6506
rtoes 5.23535
lfemur -39.3533 4.63539 -15.0325
ltibia 29.2415
lfoot -23.1299 9.11056
ltoes -13.3988
273
root 8.8655 16.5142 13.5816 8.55873 -7.6972 -4.7506
lowerback 0.365343 4.87599 7.50615
upperback -2.25116 6.67316 2.60961
thorax -2.00003 3.21426 -1.58173
lowerneck -8.58877 -1.28397 -1.28167
upperneck 16.2232 -1.4328 -0.686508
head 6.34464 -0.820414 -0.1198
rclavicle 4.70623e-014 3.33958e-014
rhumerus -24.4138 11.26 -82.097
rradius 50.41
rwrist -7.81779
rhand -19.7056 -42.568
rfingers 7.12502
rthumb 6.62403 -72.4444
lclavicle 4.70623e-014 3.33958e-014
lhumerus -54.4687 -0.299382 84.2869
lradius 21.6596
lwrist 1.24551
lhand -20.4858 -18.3857
lfingers 7.12502
lthumb 5.8708 11.513
rfemur -4.89898 -2.56908 27.8444
rtibia 27.5533
rfoot -13.9163 22.4171
rtoes 8.66114
lfemur -39.8628 3.9356 -14.0588
ltibia 27.9662
lfoot -23.5173 10.2476
ltoes -11.5985
274
root 8.87446 16.4973 13.7571 8.45657 -8.09853 -4.96813
lowerback 0.132901 5.03719 7.65118
upperback -2.05932 6.85022 2.56439
thorax -1.63456 3.31572 -1.67064
lowerneck -8.56489 -1.26444 -1.31291
upperneck 16.1137 -1.43821 -0.473349
head 6.30742 -0.807582 -0.0466758
rclavicle 2.39536e-014 -1.66979e-014
rhumerus -23.7342 11.5318 -82.0379
rradius 50.4682
rwrist -8.23888
rhand -17.1006 -39.0889
rfingers 7.12502
rthumb 9.13829 -68.8709
lclavicle 2.39536e-014 -1.66979e-014
lhumerus -54.8536 0.18868 83.4978
lradius 21.6197
lwrist 0.957375
lhand -20.6607 -18.6143
lfingers 7.12502
lthumb 5.70194 11.289
rfemur -3.53888 -2.47224 27.762
rtibia 26.5749
rfoot -13.3736 22.9331
rtoes 11.8653
lfemur -40.2174 3.73983 -13.4358
ltibia 26.7527
lfoot -23.4038 10.8655
ltoes -9.53113
275
root 8.87966 16.4655 13.9182 8.39141 -8.57064 -5.27794
lowerback 0.223053 5.20846 7.79954
upperback -1.97879 7.08261 2.53005
thorax -1.56093 3.43284 -1.7866
lowerneck -8.47049 -1.23866 -1.09133
upperneck 15.8812 -1.42789 -0.54063
head 6.21478 -0.793886 -0.102121
rclavicle -1.61016e-014 1.74931e-014
rhumerus -23.1634 11.6895 -82.0387
rradius 50.2671
rwrist -8.59161
rhand -19.2324 -41.1398
rfingers 7.12502
rthumb 7.08084 -71.0014
lclavicle -1.61016e-014 1.74931e-014
lhumerus -55.2002 0.570501 82.7676
lradius 21.4246
lwrist 0.732678
lhand -20.0071 -18.1175
lfingers 7.12502
lthumb 6.33294 11.7678
rfemur -2.39533 -2.07193 27.9234
rtibia 25.5757
rfoot -12.757 22.9717
rtoes 12.7023
lfemur -40.6021 3.02969 -12.3052
ltibia 25.5662
lfoot -23.677 11.8264
ltoes -6.84964
276
root 8.88815 16.4357 14.0874 8.35348 -9.08524 -5.52257
lowerback 0.309579 5.36326 7.82302
upperback -1.98258 7.29885 2.57382
thorax -1.59794 3.53899 -1.76135
lowerneck -8.52814 -1.24531 -1.14562
upperneck 15.8248 -1.43086 -0.525762
head 6.20753 -0.797331 -0.0888594
rclavicle -3.74212e-014 2.38542e-015
rhumerus -22.8152 12.1037 -81.9439
rradius 50.2885
rwrist -8.59307
rhand -19.543 -38.9901
rfingers 7.12502
rthumb 6.78095 -68.8615
lclavicle -3.74212e-014 2.38542e-015
lhumerus -55.8216 0.855869 82.4036
lradius 21.2125
lwrist 0.980814
lhand -20.2813 -18.0886
lfingers 7.12502
lthumb 6.06821 11.8045
rfemur -1.15218 -1.94405 27.9082
rtibia 24.5739
rfoot -12.6091 23.2167
rtoes 11.6065
lfemur -40.9473 1.53134 -10.7331
ltibia 24.4376
lfoot -24.7317 13.6473
ltoes -4.11715
277
root 8.9014 16.4083 14.2834 8.17866 -9.42989 -5.69534
lowerback 0.0714081 5.45884 7.96662
upperback -1.84152 7.39074 2.56398
thorax -1.29162 3.59611 -1.81215
lowerneck -8.64923 -1.19711 -1.28625
upperneck 15.7982 -1.38562 -0.263802
head 6.22297 -0.763322 0.0202193
rclavicle 3.03644e-014 2.54444e-014
rhumerus -22.4352 12.6594 -81.8674
rradius 50.5086
rwrist -8.72205
rhand -20.709 -36.9108
rfingers 7.12502
rthumb 5.65536 -66.8154
lclavicle 3.03644e-014 2.54444e-014
lhumerus -56.596 0.961939 82.1278
lradius 21.3511
lwrist 1.37503
lhand -20.6564 -18.2505
lfingers 7.12502
lthumb 5.7061 11.6526
rfemur 0.432715 -2.31249 27.6566
rtibia 23.5487
rfoot -12.4236 24.0837
rtoes 11.8274
lfemur -41.0806 0.43515 -9.59744
ltibia 23.4556
lfoot -25.7522 15.0071
ltoes -3.83502
278
root 8.90899 16.3641 14.4625 8.14637 -9.62081 -6.08372
lowerback -0.159928 5.57011 8.33372
upperback -1.66455 7.50123 2.51687
thorax -0.917571 3.66306 -2.01617
lowerneck -8.80442 -1.19197 -1.04284
upperneck 15.6307 -1.39741 -0.365815
head 6.19413 -0.762386 -0.0535978
rclavicle 7.59854e-014 5.24792e-014
rhumerus -21.8313 13.0562 -81.7895
rradius 50.6026
rwrist -9.11754
rhand -21.7093 -36.6983
rfingers 7.12502
rthumb 4.68945 -66.6264
lclavicle 7.59854e-014 5.24792e-014
lhumerus -57.0887 0.760086 81.9189
lradius 21.6273
lwrist 1.83675
lhand -20.4226 -18.0906
lfingers 7.12502
lthumb 5.93187 11.8063
rfemur 1.71027 -2.47313 27.7891
rtibia 22.4327
rfoot -11.3824 24.8051
rtoes 14.9178
lfemur -41.4903 -0.243122 -8.44055
ltibia 22.6632
lfoot -26.406 15.646
ltoes -4.61846
